# xmcd
#
# Track frame offsets:
#	150
#	11473
#	25846
#	35811
#	52190
#	81495
#
# Disc length: 1274 seconds
#
# Revision: 0
# Processed by: cddbd v1.5PL3 Copyright (c) Steve Scherf et al.
# Submitted via: dBpowerAMP V4.0
#
DISCID=4a04f806
DTITLE=Red Mercury - nothin purdy boutda blues
DYEAR=1900
DGENRE=Blues
TTITLE0=Stop What Youre Doin
TTITLE1=Why Don't You Tell Me
TTITLE2=It's Always A Fight
TTITLE3=Thinkin' About You
TTITLE4=You and Me
TTITLE5=DATA
EXTD=
EXTT0=
EXTT1=
EXTT2=
EXTT3=
EXTT4=
EXTT5=
PLAYORDER=
